<svg xmlns="http://www.w3.org/2000/svg" viewBox="-1 -1 66 66">
  <defs><clipPath id="m-pot"><path d="M14.5 28.5H49.5V33A17.5 17.5 0 0 1 14.5 33Z"/></clipPath></defs>
  <path fill="#fe640b" d="M32 51Q39.5 57 37.8 60.6Q36.3 63.6 32 63.6Q27.7 63.6 26.2 60.6Q24.5 57 32 51Z"/>
  <path d="M19.5 49L16.5 58M44.5 49L47.5 58" stroke="#4c4f69" stroke-width="3" stroke-linecap="round" fill="none"/>
  <path d="M13 27H51V33A19 19 0 0 1 13 33Z" fill="#eff1f5" stroke="#4c4f69" stroke-width="3" stroke-linejoin="round"/>
  <path fill="#8839ef" clip-path="url(#m-pot)" d="M8 36Q14 31.5 20 36T32 36T44 36T56 36V60H8Z"/>
  <circle fill="#eff1f5" fill-opacity=".55" cx="25" cy="43" r="2.6"/>
  <circle fill="#eff1f5" fill-opacity=".55" cx="36" cy="47" r="1.8"/>
  <rect x="9" y="21" width="46" height="7" rx="3.5" fill="#eff1f5" stroke="#4c4f69" stroke-width="3"/>
  <circle fill="#8839ef" cx="27" cy="15" r="2.6"/>
  <circle cx="38" cy="11" r="3" stroke="#ea76cb" stroke-width="2" fill="none"/>
  <circle fill="#7287fd" cx="45" cy="3.5" r="2.2"/>
  <path fill="#df8e1d" d="M12 3Q12 8.5 17.5 8.5Q12 8.5 12 14Q12 8.5 6.5 8.5Q12 8.5 12 3Z"/>
</svg>
